<svg t="1716990418800" class="icon" viewBox="0 0 1024 1024" version="1.1" xmlns="http://www.w3.org/2000/svg" p-id="3641" width="200" height="200"><path d="M504.507317 6.243902C159.843902 6.243902 4.995122 161.092683 4.995122 505.756098s154.84878 499.512195 499.512195 499.512195 499.512195-154.84878 499.512195-499.512195S849.170732 6.243902 504.507317 6.243902z m209.795122 689.32683H338.419512c-73.678049 0-133.619512-59.941463-133.619512-133.619512 0-64.936585 46.204878-119.882927 108.643902-131.121952 29.970732-62.439024 93.658537-106.146341 167.336586-106.146341 82.419512 0 152.35122 53.697561 177.326829 128.62439-6.243902 2.497561-13.736585 6.243902-19.980488 9.990244-36.214634 21.229268-59.941463 53.697561-71.180488 94.907317-2.497561 11.239024 3.746341 22.478049 14.985366 26.22439 1.24878 0 3.746341 1.24878 4.995122 1.248781 9.990244 0 17.482927-6.243902 19.980488-16.234147 16.234146-62.439024 71.180488-84.917073 109.892683-86.165853 56.195122 2.497561 102.4 48.702439 102.4 106.146341 1.24878 58.692683-46.204878 106.146341-104.897561 106.146342z" fill="#29B6F6" p-id="3642"></path></svg>